<?xml version="1.0" encoding="UTF-8"?>
<svg id="Capa_2" data-name="Capa 2" xmlns="http://www.w3.org/2000/svg" viewBox="0 0 712.71 173.31">
  <defs>
    <style>
      .cls-1 {
        fill: #2e5186;
      }
    </style>
  </defs>
  <g id="Capa_1-2" data-name="Capa 1">
    <g>
      <polygon class="cls-1" points="273.6 53.54 244.75 53.54 255.64 1.95 241.12 1.95 227.46 66.63 270.83 66.63 273.6 53.54"/>
      <polygon class="cls-1" points="339.33 1.95 291.37 1.95 288.7 14.56 336.65 14.56 339.33 1.95"/>
      <polygon class="cls-1" points="328.34 53.73 295.38 53.73 298.25 40.17 322.04 40.17 324.23 29.75 300.45 29.75 302.74 19.25 287.74 19.25 277.71 66.63 325.67 66.63 328.34 53.73"/>
      <polygon class="cls-1" points="392.06 2.05 346.11 2.05 343.43 14.66 359.1 14.66 348.12 66.63 362.64 66.63 373.62 14.66 389.39 14.66 392.06 2.05"/>
      <path class="cls-1" d="M395.31,19.34l-10.03,47.29h14.52l5.06-24.07h20.92c1.78,0,2.67.51,2.67,1.53,0,.19-.02.4-.05.62-.03.23-.08.5-.14.81l-4.39,21.11h14.52l4.68-22.45c.13-.38.19-.75.19-1.1v-1c0-2.04-.7-3.45-2.1-4.25-1.4-.8-3.12-1.26-5.16-1.39,2.23-.25,4.27-1.07,6.11-2.44,1.85-1.37,3.12-3.71,3.82-7.02l2.96-14.04c.13-.7.24-1.37.33-2.01.09-.63.14-1.24.14-1.81,0-2.42-.73-4.22-2.2-5.4-1.47-1.18-3.85-1.77-7.17-1.77h-41.08l-2.67,12.61h34.3c1.08,0,1.85.13,2.29.38.44.25.67.76.67,1.53,0,.19-.02.41-.05.67s-.08.54-.14.86l-2.3,10.51c-.32,1.34-.71,2.23-1.19,2.67-.48.45-1.42.67-2.82.67h-19.87l2.67-12.51h-14.52Z"/>
      <path class="cls-1" d="M451.24,64.91c1.43,1.15,3.77,1.72,7.02,1.72h32.19c4.07,0,7.12-.92,9.12-2.77,2.01-1.85,3.42-4.68,4.25-8.5l8.89-42.13c.13-.77.24-1.5.33-2.2.09-.7.14-1.37.14-2.01,0-2.42-.7-4.2-2.1-5.35-1.4-1.15-3.73-1.72-6.97-1.72h-32.19c-4.14,0-7.2.92-9.17,2.77-1.98,1.85-3.38,4.68-4.2,8.5l-8.89,42.13c-.38,1.66-.57,3.09-.57,4.3,0,2.36.72,4.11,2.15,5.25ZM465.05,50.48l6.88-32.19c.32-1.46.75-2.45,1.29-2.96.54-.51,1.45-.76,2.72-.76h18.06c2.23,0,3.34.73,3.34,2.2,0,.19-.02.41-.05.67-.03.26-.08.54-.14.86l-6.88,32.19c-.26,1.15-.7,1.98-1.34,2.48-.64.51-1.72.76-3.25.76h-18.06c-1.85,0-2.77-.67-2.77-2.01,0-.19.06-.6.19-1.24Z"/>
      <polygon class="cls-1" points="525.81 66.63 540.33 66.63 545.96 39.98 574.91 1.95 560.39 1.95 541.67 27.46 533.74 1.95 518.55 1.95 531.44 39.98 525.81 66.63"/>
      <polygon class="cls-1" points="614.46 66.63 617.13 53.73 584.18 53.73 587.04 40.17 610.83 40.17 613.03 29.75 589.24 29.75 591.53 19.25 576.53 19.25 566.5 66.63 614.46 66.63"/>
      <polygon class="cls-1" points="628.12 1.95 580.16 1.95 577.49 14.56 625.45 14.56 628.12 1.95"/>
      <path class="cls-1" d="M201.24,110.96l4.49-21.3c.13-.83.24-1.58.33-2.25s.14-1.32.14-1.96c0-2.42-.7-4.2-2.1-5.35-1.4-1.15-3.73-1.72-6.97-1.72h-40.51l-2.68,12.61h34.49c.89,0,1.54.11,1.96.33.41.22.62.68.62,1.39,0,.26-.06.7-.19,1.34l-2.77,12.71c-.32,1.47-.72,2.45-1.19,2.96-.48.51-1.32.76-2.53.76h-19.97l3.15-14.71h-14.52l-10.03,47.29h14.52l4.39-20.83h25.99c4.14,0,7.2-.92,9.17-2.77,1.97-1.85,3.37-4.68,4.2-8.5Z"/>
      <path class="cls-1" d="M227.13,78.38l-33.63,64.68h14.04l4.97-10.03h23.31l.67,10.03h14.62l-4.97-64.68h-19.01ZM217.67,122.33l15.67-30.95,2.01,30.95h-17.67Z"/>
      <path class="cls-1" d="M317.69,103.41l2.96-14.04c.13-.7.24-1.37.33-2.01.1-.63.14-1.24.14-1.81,0-2.42-.73-4.22-2.2-5.4-1.47-1.18-3.85-1.77-7.16-1.77h-41.08l-2.67,12.61h34.3c1.08,0,1.85.13,2.29.38.45.25.67.76.67,1.53,0,.19-.02.41-.05.67-.03.25-.08.54-.14.86l-2.29,10.51c-.32,1.34-.72,2.23-1.19,2.67-.48.45-1.42.67-2.82.67h-19.87l2.68-12.51h-14.52l-10.03,47.29h14.52l5.06-24.07h20.92c1.78,0,2.67.51,2.67,1.53,0,.19-.02.4-.05.62-.03.23-.08.5-.14.81l-4.39,21.11h14.52l4.68-22.45c.13-.38.19-.75.19-1.1v-1c0-2.04-.7-3.45-2.1-4.25-1.4-.8-3.12-1.26-5.16-1.39,2.23-.25,4.27-1.07,6.11-2.44,1.85-1.37,3.12-3.71,3.82-7.02Z"/>
      <path class="cls-1" d="M349.31,78.38l-33.63,64.68h14.04l4.97-10.03h23.31l.67,10.03h14.62l-4.97-64.68h-19.01ZM339.85,122.33l15.67-30.95,2.01,30.95h-17.67Z"/>
      <path class="cls-1" d="M440.45,101.48l2.58-12.17c.13-.7.24-1.37.33-2.01.09-.64.14-1.25.14-1.82,0-2.43-.73-4.23-2.2-5.41-1.47-1.18-3.85-1.77-7.17-1.77h-41.17l-2.58,12.61h34.68c1.08,0,1.85.14,2.29.43s.67.81.67,1.58c0,.51-.09,1.08-.29,1.72l-1.62,7.83c-.26,1.08-.65,1.85-1.19,2.29-.54.45-1.51.67-2.91.67h-20.25l2.2-10.41h-14.52l-10.13,48.05h42.13c4.08,0,7.12-.91,9.12-2.72,2.01-1.81,3.39-4.57,4.16-8.26l3.25-15.38c.06-.32.11-.63.14-.95.03-.32.05-.64.05-.95,0-1.72-.59-2.96-1.77-3.73-1.18-.77-2.69-1.24-4.54-1.43,2.23-.26,4.07-1.01,5.54-2.25,1.46-1.25,2.48-3.21,3.06-5.9ZM423.4,117.28c-.03.26-.08.54-.14.86l-1.81,8.55c-.32,1.54-.78,2.55-1.39,3.03-.61.48-1.64.72-3.1.72h-20.44l3.34-15.86h20.44c1.08,0,1.88.13,2.39.38.51.26.76.8.76,1.63,0,.19-.02.42-.05.67Z"/>
      <path class="cls-1" d="M505.65,87.36c.09-.63.14-1.24.14-1.81,0-2.42-.73-4.22-2.2-5.4-1.47-1.18-3.85-1.77-7.17-1.77h-41.08l-2.68,12.61h34.3c1.08,0,1.85.13,2.29.38.44.25.67.76.67,1.53,0,.19-.02.41-.05.67-.03.25-.08.54-.14.86l-2.29,10.51c-.32,1.34-.72,2.23-1.19,2.67-.48.45-1.42.67-2.82.67h-19.87l2.67-12.51h-14.52l-10.03,47.29h14.52l5.06-24.07h20.92c1.78,0,2.68.51,2.68,1.53,0,.19-.02.4-.05.62-.03.23-.08.5-.14.81l-4.39,21.11h14.52l4.68-22.45c.13-.38.19-.75.19-1.1v-1c0-2.04-.7-3.45-2.1-4.25-1.4-.8-3.12-1.26-5.16-1.39,2.23-.25,4.27-1.07,6.11-2.44,1.85-1.37,3.12-3.71,3.82-7.02l2.96-14.04c.13-.7.24-1.37.33-2.01Z"/>
      <polygon class="cls-1" points="518.02 78.38 504.36 143.06 518.88 143.06 532.54 78.38 518.02 78.38"/>
      <path class="cls-1" d="M586.99,111.44c0-2.04-.59-3.63-1.77-4.78-1.18-1.15-3.11-1.72-5.78-1.72h-25.89c-1.4,0-2.1-.48-2.1-1.43,0-.19.01-.38.05-.57.03-.19.08-.41.14-.67l1.81-8.5c.25-1.15.6-1.94,1.05-2.39.45-.45,1.18-.67,2.2-.67h34.3l2.58-12.32h-40.22c-4.2,0-7.29.92-9.27,2.77-1.98,1.85-3.38,4.68-4.2,8.5l-3.53,16.72c-.19,1.08-.29,2.01-.29,2.77,0,2.04.59,3.61,1.77,4.73,1.18,1.12,3.07,1.67,5.69,1.67h25.51c1.65,0,2.48.57,2.48,1.72,0,.45-.03.8-.1,1.05l-1.91,8.98c-.26,1.21-.65,2.04-1.19,2.48-.54.45-1.39.67-2.53.67h-34.49l-2.67,12.61h40.98c4.14,0,7.2-.92,9.17-2.77,1.97-1.85,3.38-4.68,4.2-8.5l3.73-17.67c.19-.96.29-1.85.29-2.68Z"/>
      <path class="cls-1" d="M618.14,78.38l-33.63,64.68h14.04l4.97-10.03h23.31l.67,10.03h14.62l-4.97-64.68h-19.01ZM608.68,122.33l15.67-30.95,2.01,30.95h-17.67Z"/>
      <path class="cls-1" d="M670.77,102.26l1.81-8.5c.25-1.15.6-1.94,1.05-2.39.45-.45,1.18-.67,2.2-.67h34.3l2.58-12.32h-40.22c-4.2,0-7.29.92-9.27,2.77-1.98,1.85-3.38,4.68-4.2,8.5l-3.53,16.72c-.19,1.08-.29,2.01-.29,2.77,0,2.04.59,3.61,1.77,4.73,1.18,1.12,3.07,1.67,5.69,1.67h25.51c1.65,0,2.48.57,2.48,1.72,0,.45-.03.8-.1,1.05l-1.91,8.98c-.26,1.21-.65,2.04-1.19,2.48-.54.45-1.39.67-2.53.67h-34.49l-2.67,12.61h40.98c4.14,0,7.2-.92,9.17-2.77,1.97-1.85,3.38-4.68,4.2-8.5l3.73-17.67c.19-.96.29-1.85.29-2.68,0-2.04-.59-3.63-1.77-4.78-1.18-1.15-3.11-1.72-5.78-1.72h-25.89c-1.4,0-2.1-.48-2.1-1.43,0-.19.01-.38.05-.57.03-.19.08-.41.14-.67Z"/>
      <path class="cls-1" d="M120.89,75.57H25.33L41.28,0h-21.27L0,94.62h107.75c2.74,0,3.9.58,3.9,2.61,0,.58-.14,1.3-.29,2.02l-4.19,19.2c-1.01,4.47-2.02,5.63-5.63,5.63h-30.18l4.76-22.24h-21.94l-15.16,71.47h21.94l6.64-31.48h39.27c12.42,0,17.76-5.49,20.21-17.04l6.79-32.2c.43-2.46.72-4.48.72-6.35,0-7.22-3.9-10.68-13.72-10.68Z"/>
    </g>
  </g>
</svg>