<?xml version="1.0" encoding="UTF-8"?>
<svg id="Capa_2" data-name="Capa 2" xmlns="http://www.w3.org/2000/svg" viewBox="0 0 105.03 40">
  <defs>
    <style>
      .cls-1 {
        fill: #fff;
      }
    </style>
  </defs>
  <g id="Capa_1-2" data-name="Capa 1">
    <g>
      <g>
        <g>
          <path class="cls-1" d="M41.98,22.05v1.42h2.35v1.71c-.56.42-1.34.69-2.22.69-1.88,0-3.12-1.39-3.12-3.28v-.02c0-1.76,1.3-3.23,2.98-3.23,1.16,0,1.86.37,2.57.97l1.02-1.22c-.94-.8-1.94-1.25-3.53-1.25-2.78,0-4.74,2.18-4.74,4.75v.03c0,2.68,1.89,4.72,4.76,4.72,1.63,0,2.92-.66,3.83-1.43v-3.86h-3.91Z"/>
          <path class="cls-1" d="M54.7,17.93h-1.49l-4.04,9.25h1.65l.94-2.21h4.34l.93,2.21h1.7l-4.04-9.25ZM52.35,23.54l1.57-3.67,1.59,3.67h-3.16Z"/>
          <path class="cls-1" d="M63.89,25.71v-7.71h-1.61v9.18h6.44v-1.47h-4.83Z"/>
          <path class="cls-1" d="M75.98,18h-3.62v9.18h1.61v-2.95h1.82c2.03,0,3.67-1.09,3.67-3.13v-.03c0-1.85-1.33-3.07-3.49-3.07ZM77.83,21.13c0,.96-.76,1.64-1.98,1.64h-1.88v-3.31h1.88c1.2,0,1.98.55,1.98,1.64v.03Z"/>
          <path class="cls-1" d="M90.95,19.24l-.85,1.56c.31.51.49,1.13.49,1.79v.03c0,1.79-1.27,3.23-3.1,3.23s-3.12-1.47-3.12-3.26v-.02c0-1.79,1.27-3.23,3.1-3.23.13,0,.25,0,.37.02l.76-1.39c-.35-.08-.72-.12-1.11-.12-2.82,0-4.81,2.18-4.81,4.75v.03c0,2.58,1.97,4.72,4.79,4.72s4.81-2.18,4.81-4.75v-.02c0-1.29-.49-2.47-1.33-3.33Z"/>
          <path class="cls-1" d="M102.62,18v6.35l-4.92-6.35h-1.49v9.18h1.59v-6.53l5.06,6.53h1.35v-9.18h-1.59Z"/>
        </g>
        <g>
          <path class="cls-1" d="M37.7,1.84h6.81v1.44h-5.19v2.39h4.6v1.46h-4.6v2.45h5.26v1.44h-6.87V1.84Z"/>
          <path class="cls-1" d="M48.46,1.84h1.61v7.71h4.83v1.47h-6.44V1.84Z"/>
        </g>
        <rect class="cls-1" x="88.14" y="18.31" width="2.88" height="1.28" rx=".64" ry=".64" transform="translate(30.22 88.67) rotate(-61.53)"/>
      </g>
      <g>
        <path class="cls-1" d="M2.31,35.09h.78l2.11,4.83h-.89l-.49-1.16H1.56l-.49,1.16H.2l2.11-4.83ZM3.52,38.02l-.83-1.92-.82,1.92h1.65Z"/>
        <path class="cls-1" d="M9.46,35.13h.9l1.46,2.27,1.46-2.27h.9v4.8h-.84v-3.44l-1.51,2.26h-.03l-1.5-2.25v3.43h-.83v-4.8Z"/>
        <path class="cls-1" d="M18.62,37.54h0c0-1.36,1.04-2.49,2.51-2.49s2.5,1.12,2.5,2.47h0c0,1.36-1.04,2.49-2.51,2.49s-2.5-1.12-2.5-2.47ZM22.75,37.54h0c0-.95-.67-1.71-1.63-1.71s-1.62.75-1.62,1.68h0c0,.95.67,1.71,1.63,1.71s1.62-.75,1.62-1.68Z"/>
        <path class="cls-1" d="M28.09,35.13h2.15c.56,0,.97.14,1.25.42.21.21.32.48.32.79h0c0,.6-.33.9-.69,1.08.57.2.95.51.95,1.17h0c0,.87-.71,1.33-1.78,1.33h-2.22v-4.8ZM30.98,36.48c0-.38-.29-.61-.84-.61h-1.21v1.27h1.15c.55,0,.9-.21.9-.65h0ZM31.24,38.5c0-.41-.32-.64-.99-.64h-1.34v1.32h1.4c.58,0,.93-.22.93-.66h0Z"/>
        <path class="cls-1" d="M36.47,35.13h.84v4.03h2.52v.77h-3.36v-4.8Z"/>
        <path class="cls-1" d="M45.83,35.09h.78l2.11,4.83h-.89l-.49-1.16h-2.27l-.49,1.16h-.86l2.11-4.83ZM47.04,38.02l-.83-1.92-.82,1.92h1.65Z"/>
        <path class="cls-1" d="M52.98,35.13h.9l1.46,2.27,1.46-2.27h.9v4.8h-.84v-3.44l-1.51,2.26h-.03l-1.5-2.25v3.43h-.83v-4.8Z"/>
        <path class="cls-1" d="M62.4,35.13h.84v4.8h-.84v-4.8Z"/>
        <path class="cls-1" d="M67.95,35.13h3.56v.75h-2.71v1.25h2.41v.76h-2.41v1.28h2.75v.75h-3.59v-4.8Z"/>
        <path class="cls-1" d="M75.97,35.13h.78l2.57,3.32v-3.32h.83v4.8h-.71l-2.64-3.41v3.41h-.83v-4.8Z"/>
        <path class="cls-1" d="M85.99,35.91h-1.53v-.78h3.9v.78h-1.53v4.01h-.84v-4.01Z"/>
        <path class="cls-1" d="M92.21,37.54h0c0-1.36,1.04-2.49,2.51-2.49s2.5,1.12,2.5,2.47h0c0,1.36-1.04,2.49-2.51,2.49s-2.5-1.12-2.5-2.47ZM96.34,37.54h0c0-.95-.67-1.71-1.63-1.71s-1.62.75-1.62,1.68h0c0,.95.67,1.71,1.63,1.71s1.62-.75,1.62-1.68Z"/>
        <path class="cls-1" d="M101.32,39.22l.51-.6c.47.4.92.62,1.51.62.52,0,.85-.25.85-.6h0c0-.35-.19-.55-1.08-.75-1.02-.24-1.6-.55-1.6-1.43h0c0-.84.69-1.4,1.64-1.4.71,0,1.25.21,1.74.6l-.45.64c-.44-.32-.86-.49-1.3-.49-.49,0-.78.25-.78.57h0c0,.38.22.55,1.14.77,1.01.26,1.53.6,1.53,1.4h0c0,.92-.71,1.45-1.71,1.45-.74,0-1.42-.25-2-.77Z"/>
      </g>
      <path class="cls-1" d="M26.01,1.13l-8.52,8.52c-.24.24-.57.38-.91.38h-4.58c-.34,0-.67-.14-.91-.38L2.57,1.13c-.42-.42-.12-1.13.47-1.13h22.51c.59,0,.88.71.47,1.13Z"/>
      <path class="cls-1" d="M10.03,12v4.58c0,.34-.14.67-.38.91L1.13,26.01c-.42.42-1.13.12-1.13-.47V3.04c0-.59.71-.88,1.13-.47l8.52,8.52c.24.24.38.57.38.91Z"/>
      <path class="cls-1" d="M28.58,3.04v22.5c0,.59-.71.88-1.13.47l-8.52-8.52c-.24-.24-.38-.57-.38-.91v-4.58c0-.34.14-.67.38-.91L27.46,2.57c.42-.42,1.13-.12,1.13.47Z"/>
      <path class="cls-1" d="M25.55,28.58H3.04c-.59,0-.88-.71-.47-1.13l8.52-8.52c.24-.24.57-.38.91-.38h4.58c.34,0,.67.14.91.38l8.52,8.52c.42.42.12,1.13-.47,1.13Z"/>
    </g>
  </g>
</svg>